<svg width="585" height="109" viewBox="0 0 585 109" fill="none" xmlns="http://www.w3.org/2000/svg">
<path d="M19.1982 101.119C18.3449 101.119 17.4915 101.076 16.6382 100.991C15.8702 100.991 15.1449 100.948 14.4622 100.863C12.8409 100.692 11.2195 100.223 9.59819 99.4546C8.06219 98.7719 6.52619 97.8332 4.99019 96.6386C1.66219 93.9079 -0.00181249 90.9639 -0.00181249 87.8066C-0.00181249 84.6492 1.53419 82.2599 4.60619 80.6386C6.99552 79.2732 9.93952 78.5906 13.4382 78.5906C18.2169 78.5906 24.8729 80.3399 33.4062 83.8386C36.6489 80.0839 39.5929 75.6039 42.2382 70.3986C44.8835 65.1932 47.2729 59.3479 49.4062 52.8626C53.1609 41.3426 55.4649 29.9079 56.3182 18.5586C39.7635 19.4972 27.3902 24.3186 19.1982 33.0226C16.1262 36.3506 14.5902 39.8919 14.5902 43.6466C14.5902 50.0466 18.0462 54.8679 24.9582 58.1106C25.6409 58.4519 26.4515 58.7506 27.3902 59.0066C28.4142 59.2626 29.6089 59.5612 30.9742 59.9026C31.4009 60.0732 31.6142 60.2439 31.6142 60.4146C31.6142 60.8412 31.3155 61.0546 30.7182 61.0546L30.4622 60.9266C25.4275 60.4999 20.9049 58.5372 16.8942 55.0386C12.4569 51.1986 10.2382 46.8466 10.2382 41.9826C10.2382 38.2279 11.7315 34.8146 14.7182 31.7426C23.7635 22.1852 37.6729 17.1079 56.4462 16.5106C56.5315 15.3159 56.5742 14.1639 56.5742 13.0546C56.6595 11.9452 56.7022 10.8359 56.7022 9.72656C56.7022 9.29989 56.7022 8.83056 56.7022 8.31856C56.7022 7.72123 56.6595 6.99589 56.5742 6.14256C56.4889 5.37455 56.4462 4.69189 56.4462 4.09456C56.4462 3.49722 56.4462 3.02789 56.4462 2.68656C56.4462 2.08923 56.6169 1.79056 56.9582 1.79056C57.0435 1.79056 57.1715 2.00389 57.3422 2.43056C57.9395 6.09989 58.1955 10.7932 58.1102 16.5106C64.5955 16.4252 70.8675 17.0226 76.9262 18.3026C82.9849 10.4519 89.1715 6.52656 95.4862 6.52656C96.8515 6.52656 98.1315 6.69722 99.3262 7.03856C100.606 7.37989 101.801 7.89189 102.91 8.57456C105.129 9.93989 106.708 11.8599 107.646 14.3346C107.988 15.3586 108.158 16.3826 108.158 17.4066C108.158 17.7479 108.073 17.9186 107.902 17.9186C107.476 17.9186 107.134 17.3639 106.878 16.2546C106.366 14.4626 104.958 12.9266 102.654 11.6466C100.436 10.5372 98.3449 9.98256 96.3822 9.98256C91.0915 9.98256 86.1849 12.9692 81.6622 18.9426C86.5262 19.7106 91.0062 21.0759 95.1022 23.0386C99.2835 24.9159 103.038 27.3479 106.366 30.3346C113.961 37.1612 117.758 45.1826 117.758 54.3986C117.758 60.3719 116.436 66.2172 113.79 71.9346C110.036 79.8706 104.574 85.9719 97.4062 90.2386C90.0675 94.5052 81.9182 96.6386 72.9582 96.6386C63.9129 96.6386 54.1422 94.5052 43.6462 90.2386C37.9289 97.4919 29.7795 101.119 19.1982 101.119ZM39.8062 86.3986C41.2569 84.9479 42.8355 82.8146 44.5422 79.9986C46.2489 77.1826 48.0409 73.7692 49.9182 69.7586C52.0515 65.4066 54.0569 61.0546 55.9342 56.7026C57.8969 52.2652 59.8595 47.8706 61.8222 43.5186C67.2835 31.6572 71.9342 23.7639 75.7742 19.8386C73.3849 19.4119 70.9102 19.0706 68.3502 18.8146C65.8755 18.5586 63.3155 18.4306 60.6702 18.4306H57.9822C57.3849 29.7799 55.2089 41.4279 51.4542 53.3746C47.1875 66.6012 41.8542 77.0546 35.4542 84.7346L39.8062 86.3986ZM71.6782 94.5906C82.9422 94.5906 92.2009 90.9212 99.4542 83.5826C106.793 76.2439 110.462 66.9852 110.462 55.8066C110.462 47.4439 107.561 39.8492 101.758 33.0226C96.0409 26.2812 89.0009 22.1426 80.6382 20.6066C79.3582 22.5692 77.8649 25.1719 76.1582 28.4146C74.4515 31.5719 72.6169 35.4119 70.6542 39.9346C69.2035 43.2626 67.3689 47.4012 65.1502 52.3506C63.0169 57.2146 60.3289 62.8039 57.0862 69.1186C54.9529 73.4706 52.8622 77.2679 50.8142 80.5106C48.8515 83.6679 46.8889 86.3559 44.9262 88.5746C49.7049 90.6226 54.3129 92.1159 58.7502 93.0546C63.2729 94.0786 67.5822 94.5906 71.6782 94.5906ZM16.8942 98.3026C20.9049 98.3026 24.9582 97.4066 29.0542 95.6146C33.6622 93.4812 36.9049 91.0066 38.7822 88.1906C37.3315 87.4226 35.8809 86.6972 34.4302 86.0146C28.2862 92.9266 21.8862 96.3826 15.2302 96.3826C13.6089 96.3826 12.7982 96.0839 12.7982 95.4866C12.7982 95.0599 13.5235 94.8466 14.9742 94.8466C20.8622 94.8466 26.7075 91.6039 32.5102 85.1186C24.5742 81.5346 17.9609 79.7426 12.6702 79.7426C11.3049 79.7426 10.0249 79.9132 8.83019 80.2546C7.72085 80.5106 6.69685 80.8519 5.75819 81.2786C3.28352 82.5586 2.04619 84.4359 2.04619 86.9106C2.04619 90.1532 3.75285 92.9266 7.16619 95.2306C10.2382 97.2786 13.4809 98.3026 16.8942 98.3026ZM136.01 46.5906C134.304 46.5906 133.45 45.6946 133.45 43.9026C133.45 42.9639 133.962 41.9399 134.986 40.8306C135.584 40.1479 136.096 39.5932 136.522 39.1666C137.034 38.7399 137.504 38.4412 137.93 38.2706C141.002 36.8199 142.837 36.0946 143.434 36.0946C143.69 36.0946 143.818 36.1799 143.818 36.3506C143.818 36.6066 142.837 37.8439 140.874 40.0626C140.789 40.1479 140.618 40.5319 140.362 41.2146C140.106 41.8119 139.637 42.7506 138.954 44.0306C138.186 45.7372 137.205 46.5906 136.01 46.5906ZM128.33 87.6786C123.978 87.6786 121.802 85.5026 121.802 81.1506C121.802 77.9079 122.656 73.8119 124.362 68.8626C124.021 69.4599 123.637 70.0572 123.21 70.6546C122.869 71.2519 122.485 71.8492 122.058 72.4466C120.949 74.3239 120.181 75.2626 119.754 75.2626C119.584 75.2626 119.498 75.1346 119.498 74.8786C119.498 74.1959 119.754 73.5559 120.266 72.9586C122.314 70.1426 124.576 66.0892 127.05 60.7986C127.306 60.1159 127.648 59.2626 128.074 58.2386C128.586 57.2146 129.184 56.0626 129.866 54.7826C130.293 54.0146 131.36 53.6306 133.066 53.6306C134.517 53.6306 135.242 54.0572 135.242 54.9106C135.242 55.7639 134.858 57.0439 134.09 58.7506C133.152 60.4572 132.384 61.4386 131.786 61.6946C127.349 70.5692 125.13 77.0972 125.13 81.2786C125.13 84.0946 126.069 85.5026 127.946 85.5026C131.018 85.5026 134.389 83.2839 138.058 78.8466C141.898 74.4092 143.776 72.1906 143.69 72.1906C143.861 72.1906 143.946 72.3186 143.946 72.5746C143.946 72.6599 143.861 72.9586 143.69 73.4706C142.922 74.8359 141.941 76.2439 140.746 77.6946C139.637 79.0599 138.357 80.5106 136.906 82.0466C133.152 85.8012 130.293 87.6786 128.33 87.6786ZM141.62 92.4146C140.852 92.4146 140.468 91.8599 140.468 90.7506V90.4946C140.81 89.2999 141.151 87.8066 141.492 86.0146C141.919 84.2226 142.388 82.1319 142.9 79.7426C143.412 77.3532 144.052 74.3666 144.82 70.7826C145.588 67.1132 146.527 62.8892 147.636 58.1106C147.551 57.9399 147.38 57.5559 147.124 56.9586C146.954 56.2759 146.655 55.4226 146.228 54.3986C145.802 53.2892 145.46 52.4786 145.204 51.9666C144.948 51.4546 144.82 51.1986 144.82 51.1986C144.82 50.6012 145.546 50.0466 146.996 49.5346C151.263 47.9132 153.994 47.1026 155.188 47.1026C156.468 47.1026 157.108 47.4866 157.108 48.2546C157.023 47.9986 154.847 53.4599 150.58 64.6386V65.7906C150.58 68.1799 150.196 69.3746 149.428 69.3746C149.343 69.3746 149.215 69.2466 149.044 68.9906C148.362 71.1239 147.679 73.1719 146.996 75.1346C146.399 77.0119 145.844 78.8892 145.332 80.7666C147.21 77.6946 149.13 74.7506 151.092 71.9346C153.14 69.1186 155.231 66.4732 157.364 63.9986C163.764 56.5746 169.055 52.8626 173.236 52.8626C175.199 52.8626 176.18 53.6306 176.18 55.1666C176.18 55.6786 176.052 56.3186 175.796 57.0866C175.028 59.9879 174.047 63.6572 172.852 68.0946C171.743 72.4466 170.378 77.5239 168.756 83.3266C173.706 79.6572 177.546 75.7319 180.276 71.5506C180.703 71.0386 181.002 70.7826 181.172 70.7826C181.428 70.7826 181.556 70.9532 181.556 71.2946C181.556 71.4652 181.428 71.7639 181.172 72.1906C177.418 78.8466 172.852 84.1372 167.476 88.0626C167.135 88.5746 166.58 88.8306 165.812 88.8306C165.215 88.8306 164.916 88.4892 164.916 87.8066C164.916 87.6359 165.002 86.8679 165.172 85.5026C165.428 84.0519 165.812 82.0466 166.324 79.4866C166.751 77.6092 167.135 75.7746 167.476 73.9826C167.818 72.1906 168.159 70.3559 168.5 68.4786C168.927 66.3452 169.183 64.3826 169.268 62.5906C169.439 60.7132 169.567 59.0066 169.652 57.4706C167.775 58.3239 165.727 59.7319 163.508 61.6946C161.375 63.5719 158.986 65.9612 156.34 68.8626C151.476 74.2386 147.978 78.9319 145.844 82.9426C144.65 85.2466 143.754 87.7212 143.156 90.3666C142.815 91.7319 142.303 92.4146 141.62 92.4146ZM148.404 54.6546L149.556 50.4306C149.13 50.7719 148.319 51.1986 147.124 51.7106C147.38 52.2226 147.594 52.7346 147.764 53.2466C148.02 53.7586 148.234 54.2279 148.404 54.6546ZM204.223 91.5186C201.919 91.5186 200.127 90.3239 198.847 87.9346C197.823 85.9719 197.311 83.7106 197.311 81.1506C197.311 79.8706 197.397 78.4626 197.567 76.9266C197.823 75.3052 198.165 73.5559 198.591 71.6786C193.215 83.6252 187.669 89.5986 181.951 89.5986C178.453 89.5986 176.703 87.3372 176.703 82.8146C176.703 75.5612 180.202 68.0519 187.199 60.2866C194.282 52.3506 201.322 48.3826 208.319 48.3826C211.647 48.3826 213.311 49.8332 213.311 52.7346C213.311 56.3186 210.922 59.9026 206.143 63.4866C203.669 69.6306 202.431 75.9452 202.431 82.4306C202.431 87.2946 203.498 89.7266 205.631 89.7266C208.447 89.7266 213.567 84.3506 220.991 73.5986C221.503 72.9159 221.887 72.5746 222.143 72.5746C222.399 72.5746 222.527 72.7452 222.527 73.0866C222.527 73.5132 222.357 73.9399 222.015 74.3666C214.335 85.8012 208.405 91.5186 204.223 91.5186ZM182.463 85.6306C187.839 85.6306 193.045 79.6572 198.079 67.7106C197.397 67.8812 196.757 68.0519 196.159 68.2226C195.647 68.3079 195.178 68.3506 194.751 68.3506C194.41 68.3506 194.239 68.2226 194.239 67.9666C194.239 67.5399 194.837 67.1132 196.031 66.6866C196.458 66.4306 197.013 66.1319 197.695 65.7906C198.378 65.3639 199.146 64.8946 199.999 64.3826C200.17 62.9319 201.066 61.0546 202.687 58.7506C204.309 56.3612 205.845 55.1666 207.295 55.1666C207.807 55.1666 208.063 55.5506 208.063 56.3186C208.063 56.9159 207.85 57.8546 207.423 59.1346C208.789 57.2572 209.471 55.4226 209.471 53.6306C209.471 51.6679 208.575 50.6866 206.783 50.6866C202.517 50.6866 196.927 54.8679 190.015 63.2306C183.103 71.6786 179.647 78.1639 179.647 82.6866C179.647 84.6492 180.586 85.6306 182.463 85.6306ZM265.106 108.031C258.792 108.031 253.757 105.983 250.002 101.887C246.248 97.8759 244.37 92.5426 244.37 85.8866C244.37 78.9746 246.376 72.8732 250.386 67.5826C254.909 61.9506 260.498 59.1346 267.154 59.1346C269.117 59.1346 270.909 59.6892 272.53 60.7986C274.322 61.7372 275.218 63.1879 275.218 65.1506C275.218 65.5772 275.09 65.8759 274.834 66.0466C274.578 65.0226 274.194 64.2119 273.682 63.6146C272.829 62.1639 271.08 61.4386 268.434 61.4386C262.461 61.4386 257.597 64.4679 253.842 70.5266C250.514 75.7319 248.85 81.4919 248.85 87.8066C248.85 93.1826 250.13 97.5346 252.69 100.863C255.421 104.703 259.432 106.623 264.722 106.623C274.792 106.623 284.562 99.8386 294.034 86.2706C298.984 79.0172 303.25 71.8919 306.834 64.8946C310.418 57.8119 313.277 50.8146 315.41 43.9026C316.008 41.9399 316.562 39.9772 317.074 38.0146C317.672 35.9666 318.184 33.8332 318.61 31.6146C318.781 30.8466 318.994 29.8652 319.25 28.6706C319.506 27.4759 319.805 26.1959 320.146 24.8306C320.829 22.2706 322.493 20.9906 325.138 20.9906C326.674 20.9906 327.442 21.5879 327.442 22.7826C327.442 23.6359 327.144 25.3852 326.546 28.0306C325.352 33.8332 323.73 39.6359 321.682 45.4386C319.634 51.2412 317.245 57.0439 314.514 62.8466H316.562C319.976 62.8466 323.645 62.5479 327.57 61.9506C331.496 61.3532 335.762 60.4146 340.37 59.1346C354.877 54.8679 362.13 47.8279 362.13 38.0146C362.13 31.9559 359.314 26.6226 353.682 22.0146C351.378 20.0519 348.818 18.3879 346.002 17.0226C343.186 15.6572 340.157 14.5052 336.914 13.5666C330.77 11.9452 324.328 11.1346 317.586 11.1346H315.154C314.557 20.0946 312.381 30.2492 308.626 41.5986C306.749 46.8892 304.658 52.1372 302.354 57.3426C300.136 62.4626 297.576 67.4972 294.674 72.4466C287.762 84.7346 280.765 93.3959 273.682 98.4306C269.757 101.332 266.344 102.783 263.442 102.783C262.674 102.783 262.29 102.484 262.29 101.887C262.29 101.375 262.632 101.076 263.314 100.991C264.509 100.82 265.576 100.607 266.514 100.351C267.453 100.095 268.306 99.7959 269.074 99.4546C273.085 97.4919 277.096 94.2492 281.106 89.7266C285.117 85.2892 289.128 79.5719 293.138 72.5746C296.296 67.0279 299.069 61.4386 301.458 55.8066C303.933 50.1746 306.109 44.4999 307.986 38.7826C309.522 33.9186 310.76 29.2252 311.698 24.7026C312.637 20.0946 313.277 15.6146 313.618 11.2626C305.853 11.6039 298.301 12.9692 290.962 15.3586C286.696 16.7239 282.898 18.3879 279.57 20.3506C276.328 22.2279 273.512 24.4039 271.122 26.8786C267.88 30.1212 266.258 33.7479 266.258 37.7586C266.258 41.0866 267.368 44.1159 269.586 46.8466C271.549 49.2359 274.109 51.0279 277.266 52.2226C277.778 52.3932 278.418 52.6066 279.186 52.8626C280.04 53.1186 281.021 53.3746 282.13 53.6306C282.642 53.7159 282.898 53.9292 282.898 54.2706C282.898 54.6972 282.6 54.8252 282.002 54.6546H281.746C276.541 53.8866 271.805 51.7532 267.538 48.2546C262.76 44.4146 260.37 39.9772 260.37 34.9426C260.37 31.4439 261.864 28.2012 264.85 25.2146C267.325 22.7399 270.44 20.4786 274.194 18.4306C278.034 16.3826 282.557 14.6332 287.762 13.1826C291.858 11.9879 296.082 11.0919 300.434 10.4946C304.786 9.81189 309.224 9.38523 313.746 9.21456V0.894562C313.746 0.297226 314.002 -0.00144196 314.514 -0.00144196C314.77 -0.00144196 314.898 0.211891 314.898 0.638557C315.24 3.19856 315.368 6.01456 315.282 9.08656H321.042C324.541 9.08656 327.869 9.25722 331.026 9.59856C334.184 9.93989 337.256 10.4092 340.242 11.0066C347.752 12.7132 353.938 15.2306 358.802 18.5586C365.288 23.0812 368.53 28.5852 368.53 35.0706C368.53 41.3852 365.416 47.0599 359.186 52.0946C354.408 56.0199 348.349 59.0919 341.01 61.3106C332.477 63.8706 323.346 65.0226 313.618 64.7666C299.624 93.6092 283.453 108.031 265.106 108.031ZM373.048 92.1586C366.99 92.1586 363.96 88.2332 363.96 80.3826C363.96 79.1879 364.003 77.9079 364.088 76.5426C364.259 75.0919 364.515 73.5559 364.856 71.9346C364.515 71.6786 364.174 71.3372 363.832 70.9106C363.491 70.3986 363.15 69.8012 362.808 69.1186C363.15 69.2039 363.491 69.3746 363.832 69.6306C364.259 69.8012 364.771 69.9719 365.368 70.1426C366.307 65.8759 368.867 61.6519 373.048 57.4706C377.571 52.8626 381.838 50.5586 385.848 50.5586C386.787 50.5586 387.256 50.6866 387.256 50.9426C387.256 51.1132 386.659 51.5399 385.464 52.2226C382.307 53.9292 379.363 56.5746 376.632 60.1586C373.731 63.7426 371.64 67.3266 370.36 70.9106C370.446 70.9959 370.488 71.0386 370.488 71.0386C370.488 71.0386 370.531 71.0812 370.616 71.1666C374.712 71.1666 378.979 69.2039 383.416 65.2786C387.854 61.3532 390.072 57.3426 390.072 53.2466C390.072 52.0519 389.731 50.8999 389.048 49.7906C388.451 48.7666 387.512 48.2546 386.232 48.2546C384.611 48.2546 382.691 48.8946 380.472 50.1746C378.339 51.5399 377.144 52.2226 376.888 52.2226C376.718 52.2226 376.632 52.1799 376.632 52.0946C376.632 51.0706 378.126 49.9612 381.112 48.7666C383.672 47.7426 385.678 47.2306 387.128 47.2306C389.176 47.2306 390.798 47.7852 391.992 48.8946C393.358 50.0039 394.04 51.5399 394.04 53.5026C394.04 58.0252 391.096 62.4199 385.208 66.6866C379.918 70.4412 374.798 72.5319 369.848 72.9586C369.166 75.0066 368.824 76.9692 368.824 78.8466C368.824 85.9292 371.384 89.4706 376.504 89.4706C380.43 89.4706 384.526 87.7639 388.792 84.3506C392.376 81.5346 395.363 78.1212 397.752 74.1106C398.52 72.9159 399.16 72.3186 399.672 72.3186C399.758 72.3186 399.8 72.4039 399.8 72.5746C399.8 72.9159 399.459 73.6839 398.776 74.8786C396.131 79.0599 392.419 82.8999 387.64 86.3986C382.435 90.2386 377.571 92.1586 373.048 92.1586ZM414.894 92.7986C410.628 92.7986 408.494 90.1959 408.494 84.9906C408.494 81.2359 409.433 76.5852 411.31 71.0386C410.969 69.9292 410.372 68.9479 409.518 68.0946C408.665 67.1559 407.556 66.3879 406.19 65.7906C405.081 65.2786 403.929 64.8092 402.734 64.3826C401.625 63.9559 400.473 63.4866 399.278 62.9746C398.169 62.4626 397.614 61.5666 397.614 60.2866C397.614 58.9212 398.212 58.1106 399.406 57.8546H402.862C407.385 57.8546 412.121 57.3426 417.07 56.3186L417.198 56.0626L425.646 37.3746C426.073 36.4359 426.585 35.2412 427.182 33.7906C427.78 32.3399 428.505 30.6759 429.358 28.7986C430.041 27.2626 431.705 26.4946 434.35 26.4946C436.142 26.4946 437.038 26.9212 437.038 27.7746C437.038 28.0306 435.46 31.6146 432.302 38.5266C429.06 45.6946 427.268 49.4492 426.926 49.7906C426.756 49.9612 426.457 50.2599 426.03 50.6866C425.689 51.0279 425.262 51.4119 424.75 51.8386C424.409 52.4359 423.897 53.4599 423.214 54.9106C424.494 54.4839 426.67 53.7586 429.742 52.7346C432.9 51.6252 436.953 50.2172 441.902 48.5106C442.244 48.4252 442.542 48.3826 442.798 48.3826C443.054 48.2972 443.225 48.2546 443.31 48.2546C443.652 48.2546 443.822 48.3399 443.822 48.5106C443.822 49.9612 436.612 52.7346 422.19 56.8306C420.484 60.1586 419.033 63.0172 417.838 65.4066C416.644 67.7106 415.748 69.5879 415.15 71.0386C414.041 73.7692 413.188 76.4146 412.59 78.9746C412.078 81.4492 411.822 83.8812 411.822 86.2706C411.822 89.0866 412.761 90.4946 414.638 90.4946C416.942 90.4946 419.972 88.8732 423.726 85.6306C425.689 83.9239 427.14 82.6866 428.078 81.9186C429.017 81.0652 429.486 80.6386 429.486 80.6386C429.742 80.6386 429.87 80.7666 429.87 81.0226C429.87 81.2786 429.742 81.6626 429.486 82.1746C428.121 84.2226 425.945 86.3986 422.958 88.7026C419.46 91.4332 416.772 92.7986 414.894 92.7986ZM411.822 69.2466C412.42 67.5399 413.06 65.7906 413.742 63.9986C414.51 62.2066 415.321 60.3719 416.174 58.4946C414.041 59.0066 411.865 59.4759 409.646 59.9026C407.513 60.3292 405.38 60.7132 403.246 61.0546C407.684 63.3586 410.542 66.0892 411.822 69.2466ZM444.048 92.1586C437.99 92.1586 434.96 88.2332 434.96 80.3826C434.96 79.1879 435.003 77.9079 435.088 76.5426C435.259 75.0919 435.515 73.5559 435.856 71.9346C435.515 71.6786 435.174 71.3372 434.832 70.9106C434.491 70.3986 434.15 69.8012 433.808 69.1186C434.15 69.2039 434.491 69.3746 434.832 69.6306C435.259 69.8012 435.771 69.9719 436.368 70.1426C437.307 65.8759 439.867 61.6519 444.048 57.4706C448.571 52.8626 452.838 50.5586 456.848 50.5586C457.787 50.5586 458.256 50.6866 458.256 50.9426C458.256 51.1132 457.659 51.5399 456.464 52.2226C453.307 53.9292 450.363 56.5746 447.632 60.1586C444.731 63.7426 442.64 67.3266 441.36 70.9106C441.446 70.9959 441.488 71.0386 441.488 71.0386C441.488 71.0386 441.531 71.0812 441.616 71.1666C445.712 71.1666 449.979 69.2039 454.416 65.2786C458.854 61.3532 461.072 57.3426 461.072 53.2466C461.072 52.0519 460.731 50.8999 460.048 49.7906C459.451 48.7666 458.512 48.2546 457.232 48.2546C455.611 48.2546 453.691 48.8946 451.472 50.1746C449.339 51.5399 448.144 52.2226 447.888 52.2226C447.718 52.2226 447.632 52.1799 447.632 52.0946C447.632 51.0706 449.126 49.9612 452.112 48.7666C454.672 47.7426 456.678 47.2306 458.128 47.2306C460.176 47.2306 461.798 47.7852 462.992 48.8946C464.358 50.0039 465.04 51.5399 465.04 53.5026C465.04 58.0252 462.096 62.4199 456.208 66.6866C450.918 70.4412 445.798 72.5319 440.848 72.9586C440.166 75.0066 439.824 76.9692 439.824 78.8466C439.824 85.9292 442.384 89.4706 447.504 89.4706C451.43 89.4706 455.526 87.7639 459.792 84.3506C463.376 81.5346 466.363 78.1212 468.752 74.1106C469.52 72.9159 470.16 72.3186 470.672 72.3186C470.758 72.3186 470.8 72.4039 470.8 72.5746C470.8 72.9159 470.459 73.6839 469.776 74.8786C467.131 79.0599 463.419 82.8999 458.64 86.3986C453.435 90.2386 448.571 92.1586 444.048 92.1586ZM474.63 91.3906C474.033 91.3906 473.265 91.1346 472.326 90.6226C471.388 89.9399 470.918 89.3852 470.918 88.9586C471.174 88.4466 471.388 87.8919 471.558 87.2946C471.814 86.6972 472.113 86.0999 472.454 85.5026C473.99 82.2599 475.398 79.0172 476.678 75.7746C477.958 72.5319 479.025 69.2892 479.878 66.0466C480.732 62.9746 481.158 59.3479 481.158 55.1666C480.988 56.0199 480.433 57.2999 479.494 59.0066C478.641 60.6279 477.489 62.6759 476.038 65.1506C474.673 67.5399 473.436 69.5452 472.326 71.1666C471.302 72.7026 470.449 73.9399 469.766 74.8786C469.766 74.9639 469.681 75.0066 469.51 75.0066C469.084 75.0066 468.87 74.8359 468.87 74.4946C468.87 74.3239 468.913 74.1959 468.998 74.1106C469.596 73.1719 470.193 72.1906 470.79 71.1666C471.473 70.1426 472.198 69.0332 472.966 67.8386C475.27 64.0839 477.105 60.7132 478.47 57.7266C479.836 54.7399 480.817 52.0946 481.414 49.7906C481.926 47.5719 482.78 46.4626 483.974 46.4626C485.34 46.4626 486.022 48.1692 486.022 51.5826C486.022 57.7266 484.06 65.2786 480.134 74.2386C484.742 68.4359 487.942 64.5959 489.734 62.7186C494.598 57.5132 498.396 54.9106 501.126 54.9106C503.857 54.9106 505.222 56.7026 505.222 60.2866C505.222 62.7612 504.54 64.9372 503.174 66.8146C501.553 69.2039 500.06 70.3986 498.694 70.3986C498.438 70.3986 498.31 70.2279 498.31 69.8866C498.31 69.8866 498.78 68.8199 499.718 66.6866C500.657 64.5532 501.126 62.7186 501.126 61.1826C501.126 58.8786 500.401 57.7266 498.95 57.7266C496.988 57.7266 493.66 60.3292 488.966 65.5346C485.212 69.8012 482.481 73.4279 480.774 76.4146C480.689 76.6706 480.305 77.6946 479.622 79.4866C478.94 81.2786 477.916 83.9239 476.55 87.4226C476.38 87.9346 476.166 88.5319 475.91 89.2146C475.74 89.8119 475.526 90.4519 475.27 91.1346C475.1 91.3052 474.886 91.3906 474.63 91.3906ZM532.652 63.8706C531.543 63.8706 530.988 63.2306 530.988 61.9506C530.988 61.4386 531.244 60.2866 531.756 58.4946C532.354 56.7026 532.652 55.2092 532.652 54.0146C532.652 50.1746 531.116 48.2546 528.044 48.2546C526.508 48.2546 524.546 48.8519 522.156 50.0466C519.852 51.3266 518.615 51.9666 518.444 51.9666C518.103 51.9666 517.932 51.8386 517.932 51.5826C517.932 50.3879 519.596 49.2786 522.924 48.2546C525.484 47.4012 527.66 46.9746 529.452 46.9746C534.06 46.9746 536.364 49.7479 536.364 55.2946C536.364 56.8306 536.066 58.4946 535.468 60.2866C534.7 62.6759 533.762 63.8706 532.652 63.8706ZM512.94 93.3106C507.052 93.3106 504.108 89.9826 504.108 83.3266C504.108 76.6706 506.284 69.8439 510.636 62.8466C515.671 54.9106 521.26 50.9426 527.404 50.9426C528.343 50.9426 528.812 51.1132 528.812 51.4546C528.812 51.7106 527.959 52.3506 526.252 53.3746C522.071 55.9346 518.359 59.8172 515.116 65.0226C511.618 70.5692 509.868 75.5612 509.868 79.9986C509.868 86.9106 512.471 90.3666 517.676 90.3666C520.919 90.3666 524.503 89.0866 528.428 86.5266C530.135 85.4172 531.714 84.2652 533.164 83.0706C534.7 81.7906 536.066 80.4252 537.26 78.9746C537.687 78.4626 538.199 77.8226 538.796 77.0546C539.394 76.2866 540.034 75.3479 540.716 74.2386C541.484 72.9586 542.082 72.3186 542.508 72.3186C542.508 72.3186 542.594 72.4039 542.764 72.5746C542.764 72.8306 542.38 73.5559 541.612 74.7506C540.162 76.9692 538.412 79.1452 536.364 81.2786C534.316 83.3266 531.927 85.2892 529.196 87.1666C523.223 91.2626 517.804 93.3106 512.94 93.3106ZM566.473 91.5186C564.169 91.5186 562.377 90.3239 561.097 87.9346C560.073 85.9719 559.561 83.7106 559.561 81.1506C559.561 79.8706 559.647 78.4626 559.817 76.9266C560.073 75.3052 560.415 73.5559 560.841 71.6786C555.465 83.6252 549.919 89.5986 544.201 89.5986C540.703 89.5986 538.953 87.3372 538.953 82.8146C538.953 75.5612 542.452 68.0519 549.449 60.2866C556.532 52.3506 563.572 48.3826 570.569 48.3826C573.897 48.3826 575.561 49.8332 575.561 52.7346C575.561 56.3186 573.172 59.9026 568.393 63.4866C565.919 69.6306 564.681 75.9452 564.681 82.4306C564.681 87.2946 565.748 89.7266 567.881 89.7266C570.697 89.7266 575.817 84.3506 583.241 73.5986C583.753 72.9159 584.137 72.5746 584.393 72.5746C584.649 72.5746 584.777 72.7452 584.777 73.0866C584.777 73.5132 584.607 73.9399 584.265 74.3666C576.585 85.8012 570.655 91.5186 566.473 91.5186ZM544.713 85.6306C550.089 85.6306 555.295 79.6572 560.329 67.7106C559.647 67.8812 559.007 68.0519 558.409 68.2226C557.897 68.3079 557.428 68.3506 557.001 68.3506C556.66 68.3506 556.489 68.2226 556.489 67.9666C556.489 67.5399 557.087 67.1132 558.281 66.6866C558.708 66.4306 559.263 66.1319 559.945 65.7906C560.628 65.3639 561.396 64.8946 562.249 64.3826C562.42 62.9319 563.316 61.0546 564.937 58.7506C566.559 56.3612 568.095 55.1666 569.545 55.1666C570.057 55.1666 570.313 55.5506 570.313 56.3186C570.313 56.9159 570.1 57.8546 569.673 59.1346C571.039 57.2572 571.721 55.4226 571.721 53.6306C571.721 51.6679 570.825 50.6866 569.033 50.6866C564.767 50.6866 559.177 54.8679 552.265 63.2306C545.353 71.6786 541.897 78.1639 541.897 82.6866C541.897 84.6492 542.836 85.6306 544.713 85.6306Z" fill="black"/>
</svg>
