<svg width="35" height="35" viewBox="0 0 35 35" fill="none" xmlns="http://www.w3.org/2000/svg">
<path d="M25.5 2C30.1944 2 34 5.80558 34 10.5V25.5C34 30.1944 30.1944 34 25.5 34H10.5C5.80558 34 2 30.1944 2 25.5V10.5C2 5.80558 5.80558 2 10.5 2H25.5ZM10.5 4C6.91015 4 4 6.91015 4 10.5V25.5C4 29.0899 6.91015 32 10.5 32H25.5C29.0899 32 32 29.0899 32 25.5V10.5C32 6.91015 29.0899 4 25.5 4H10.5ZM14.8408 11.7227C16.1475 11.0447 17.6347 10.7959 19.0908 11.0117C20.5764 11.232 21.9527 11.9234 23.0146 12.9854C24.0766 14.0473 24.768 15.4236 24.9883 16.9092C25.2041 18.3653 24.9553 19.8525 24.2773 21.1592C23.5992 22.4658 22.5268 23.5266 21.2119 24.1885C19.8969 24.8502 18.4056 25.0806 16.9521 24.8467C15.4987 24.6127 14.1552 23.9267 13.1143 22.8857C12.0733 21.8448 11.3873 20.5013 11.1533 19.0479C10.9194 17.5944 11.1498 16.1031 11.8115 14.7881C12.4734 13.4732 13.5342 12.4008 14.8408 11.7227ZM18.7979 12.9893C17.7578 12.8351 16.695 13.0129 15.7617 13.4971C14.8285 13.9814 14.0714 14.7484 13.5986 15.6875C13.1261 16.6266 12.961 17.6915 13.1279 18.7295C13.2951 19.7677 13.7857 20.7271 14.5293 21.4707C15.2729 22.2143 16.2323 22.7049 17.2705 22.8721C18.3085 23.039 19.3733 22.8739 20.3125 22.4014C21.2516 21.9286 22.0186 21.1715 22.5029 20.2383C22.9871 19.305 23.1649 18.2422 23.0107 17.2021C22.8534 16.141 22.3582 15.1589 21.5996 14.4004C20.8411 13.6418 19.859 13.1466 18.7979 12.9893ZM26.2637 8.75C26.816 8.75 27.2637 9.19772 27.2637 9.75C27.2637 10.3023 26.816 10.75 26.2637 10.75H26.25C25.6977 10.75 25.25 10.3023 25.25 9.75C25.25 9.19772 25.6977 8.75 26.25 8.75H26.2637Z" fill="black"/>
</svg>
