<svg width="35" height="35" viewBox="0 0 35 35" fill="none" xmlns="http://www.w3.org/2000/svg">
<path d="M26.0879 1C26.6401 1.00004 27.0878 1.44785 27.0879 2V8.21387C27.0879 8.76611 26.6401 9.21382 26.0879 9.21387H21.4277C21.281 9.21387 21.1399 9.27228 21.0361 9.37598C20.9325 9.47971 20.8741 9.62093 20.874 9.76758V13.4277H26.0879C26.3958 13.4278 26.6865 13.5699 26.876 13.8125C27.0653 14.0551 27.133 14.3714 27.0586 14.6699L25.5049 20.8838C25.3936 21.3289 24.993 21.6416 24.5342 21.6416H20.874V33.0693C20.8739 33.6215 20.4262 34.0693 19.874 34.0693H13.6602C13.108 34.0692 12.6602 33.6215 12.6602 33.0693V21.6416H9C8.44774 21.6416 8.00005 21.1938 8 20.6416V14.4277C8.00013 13.8756 8.44779 13.4277 9 13.4277H12.6602V9.76758C12.6602 7.44248 13.5845 5.21248 15.2285 3.56836C16.8727 1.92427 19.1026 1 21.4277 1H26.0879ZM21.4277 3C19.633 3 17.9117 3.71341 16.6426 4.98242C15.3736 6.25147 14.6602 7.97292 14.6602 9.76758V14.4277C14.6601 14.98 14.2124 15.4277 13.6602 15.4277H10V19.6416H13.6602C14.2123 19.6416 14.66 20.0894 14.6602 20.6416V32.0693H18.874V20.6416C18.8741 20.0895 19.3219 19.6417 19.874 19.6416H23.7539L24.8076 15.4277H19.874C19.3218 15.4276 18.8741 14.9799 18.874 14.4277V9.76758C18.8741 9.09049 19.1433 8.44071 19.6221 7.96191C20.1009 7.48315 20.7506 7.21387 21.4277 7.21387H25.0879V3H21.4277Z" fill="black"/>
</svg>
